# xmcd CD database file
#
# Track frame offsets:
#	150
#	14269
#	28033
#	45567
#	69146
#	86086
#	96800
#	108669
#	124451
#	142771
#	174315
#
# Disc length: 2473 seconds
#
# Revision: 0
# Processed by: cddbd v1.5.2PL0 Copyright (c) Steve Scherf et al.
# Submitted via: CDex 1.51
#
DISCID=8909a70b
DTITLE=Bradley's Circus - Live in Holland
DYEAR=2007
DGENRE=Blues
TTITLE0=Record machine
TTITLE1=J&L boogie
TTITLE2=Down on my knees
TTITLE3=Shake it
TTITLE4=It hurts so bad
TTITLE5=Evil
TTITLE6=It's been a long time
TTITLE7=Murder my baby
TTITLE8=Voodoo blues
TTITLE9=I can't quit you baby
TTITLE10=Miss celie's blues
EXTD=YEAR: 2007
EXTT0=
EXTT1=
EXTT2=
EXTT3=
EXTT4=
EXTT5=
EXTT6=
EXTT7=
EXTT8=
EXTT9=
EXTT10=
PLAYORDER=
